<svg width="667" height="249" xmlns="http://www.w3.org/2000/svg">
  <g stroke="#3AAA4A" stroke-width="4" fill="none" fill-rule="evenodd" opacity=".8">
    <path d="M441.772.755v131.3l-64.7 62.757H-58.235"/>
    <path d="M457.805 3.584v137.3L384.07 211.79H-58.234l13.732 30.098"/>
    <path d="M474.782 2.64v144.302l-84.654 82.768H-59.179"/>
    <path d="M492.701 2.64v149.302l-96.63 94.743H-58.235M579.47 177.837h-90.542v36.782h90.541zM623.932 212.595H604.03v19.9h19.902zM613.981 212.024V197.81M603.463 187.743c0-5.81 4.71-10.518 10.518-10.518 5.81 0 10.519 4.708 10.519 10.518 0 5.81-4.708 10.518-10.519 10.518-5.807 0-10.518-4.708-10.518-10.518zM664.041 212.595H644.14v19.9h19.901zM654.09 212.024V197.81M643.57 187.743c0-5.81 4.71-10.518 10.518-10.518 5.81 0 10.521 4.708 10.521 10.518 0 5.81-4.71 10.518-10.52 10.518-5.808 0-10.519-4.708-10.519-10.518z"/>
  </g>
</svg>