<svg width="425" height="389" xmlns="http://www.w3.org/2000/svg" xmlns:xlink="http://www.w3.org/1999/xlink"><defs><path id="a" d="M.008.018h28.611v28.33H.008z"/></defs><g fill="none" fill-rule="evenodd"><path d="M235.27 5.032c-11.925-6.71-26.615-6.71-38.539 0L57.269 83.502C45.345 90.213 38 102.612 38 116.03v156.942c0 13.418 7.345 25.817 19.269 32.526l139.462 78.471c11.924 6.71 26.614 6.71 38.538 0l139.462-78.47C386.655 298.787 394 286.388 394 272.97V116.029c0-13.418-7.345-25.817-19.269-32.526L235.269 5.032z" fill="#F6F9FC"/><g transform="translate(0 88)" fill="#00D8FF"><ellipse cx="21.264" cy="18.496" rx="3.799" ry="3.72"/><path d="M21.264 27.02c-5.33 0-9.972-.62-13.455-1.806-2.269-.776-4.168-1.758-5.54-2.894C.792 21.08.053 19.788.053 18.496c0-2.48 2.744-4.856 7.387-6.458 3.8-1.292 8.705-2.014 13.877-2.014 5.065 0 9.92.672 13.665 1.962 2.217.724 4.063 1.706 5.383 2.79 1.425 1.188 2.162 2.428 2.162 3.72 0 2.532-3.059 5.168-8.019 6.77-3.588 1.136-8.232 1.756-13.244 1.756v-.001zm0-15.188c-4.907 0-9.709.672-13.297 1.912-3.06 1.032-6.173 2.944-6.173 4.752 0 .724.58 1.602 1.582 2.48 1.215.982 2.902 1.912 4.96 2.584 3.325 1.136 7.757 1.706 12.875 1.706 4.802 0 9.287-.57 12.664-1.706 4.696-1.5 6.806-3.668 6.806-5.064 0-.672-.528-1.55-1.53-2.324-1.16-.93-2.797-1.808-4.802-2.48-3.588-1.188-8.231-1.86-13.085-1.86z" fill-rule="nonzero"/><path d="M12.664 37.044c-.792 0-1.478-.154-2.005-.464-2.164-1.24-2.902-4.754-2.006-9.456.74-3.874 2.586-8.37 5.17-12.76 2.534-4.29 5.594-8.06 8.601-10.644 1.741-1.5 3.535-2.584 5.118-3.152 1.742-.62 3.273-.62 4.38 0 2.27 1.292 3.008 5.168 1.953 10.18-.739 3.564-2.533 7.852-5.013 12.088-2.638 4.496-5.54 8.164-8.284 10.54-1.794 1.55-3.641 2.688-5.33 3.256-1.054.258-1.846.412-2.585.412h.001zm2.638-21.854c-2.427 4.134-4.274 8.576-4.96 12.194-.58 3.1-.475 6.664 1.16 7.594 1.215.672 4.169.052 7.756-3.048 2.639-2.274 5.383-5.734 7.915-10.076 2.428-4.08 4.116-8.162 4.855-11.572.475-2.17.58-4.134.316-5.632-.211-1.344-.686-2.274-1.372-2.634-.633-.362-1.635-.312-2.849.102-1.372.516-3.007 1.5-4.59 2.842-2.85 2.48-5.751 6.096-8.231 10.23z" fill-rule="nonzero"/><path d="M29.864 37.044c-2.058 0-4.695-1.24-7.387-3.512-3.059-2.584-6.12-6.356-8.705-10.748-2.534-4.287-4.38-8.782-5.12-12.605-.474-2.22-.528-4.288-.211-5.94.317-1.81 1.055-3.1 2.164-3.72 2.268-1.293 6.068.05 9.971 3.408 2.745 2.43 5.647 6.098 8.18 10.282 2.69 4.496 4.485 8.784 5.17 12.298.475 2.272.528 4.442.211 6.148-.369 1.86-1.16 3.152-2.268 3.822-.58.414-1.267.57-2.006.57l.001-.003zm-14.51-15.138c2.428 4.134 5.488 7.906 8.337 10.282 2.48 2.068 5.646 3.772 7.281 2.842 1.215-.672 2.111-3.514 1.16-8.06-.685-3.36-2.372-7.44-4.96-11.78-2.426-4.08-5.17-7.594-7.808-9.868-1.688-1.448-3.376-2.532-4.854-3.048-1.267-.466-2.373-.518-3.008-.156-.633.362-1.055 1.24-1.319 2.48-.263 1.448-.157 3.256.212 5.27.738 3.618 2.48 7.906 4.96 12.04v-.002zm48.284 10.785l-6.714-10.769h-5.28v10.769h-3.282V5.636h10.61c4.82 0 8.254 3.152 8.254 8.143 0 4.885-3.23 7.565-6.869 7.88l7.125 11.032h-3.844zm.205-18.912c0-3.047-2.153-5.149-5.28-5.149h-6.92v10.35h6.92c3.127 0 5.28-2.153 5.28-5.2zm7.013 8.715c0-5.592 4.056-10.094 9.692-10.094 5.953 0 9.428 4.554 9.428 10.353v.775H74.07c.263 3.625 2.844 6.678 7.057 6.678 2.213 0 4.53-.879 6.058-2.432l1.474 1.967c-1.949 1.915-4.582 2.95-7.793 2.95-5.796-.052-10.01-4.14-10.01-10.197zm9.64-7.61c-4.214 0-6.269 3.47-6.426 6.42h12.903c-.052-2.899-2.001-6.42-6.478-6.42zm24.558 17.29v-2.175c-1.56 1.76-3.673 2.692-6.238 2.692-3.169 0-6.59-2.175-6.59-6.419 0-4.296 3.37-6.367 6.59-6.367 2.565 0 4.68.829 6.238 2.64v-3.468c0-2.587-2.013-4.089-4.73-4.089-2.263 0-4.074.829-5.734 2.692l-1.358-2.07c2.013-2.175 4.426-3.21 7.496-3.21 3.974 0 7.244 1.863 7.244 6.522v13.25h-2.918v.001zm0-4.09v-3.622c-1.106-1.604-3.119-2.381-5.181-2.381-2.718 0-4.628 1.76-4.628 4.244 0 2.433 1.912 4.194 4.628 4.194 2.062 0 4.024-.829 5.181-2.434v-.001zm6.292-6.023c0-5.704 3.996-10.112 9.909-10.112 3.623 0 5.754 1.452 7.299 3.37l-2.077 1.867c-1.333-1.763-2.984-2.54-5.062-2.54-4.262 0-6.872 3.163-6.872 7.467s2.61 7.467 6.872 7.467c2.078 0 3.729-.778 5.062-2.541l2.077 1.867c-1.545 1.918-3.676 3.37-7.3 3.37-5.912-.052-9.908-4.46-9.908-10.215zm22.162 5.652V15.06h-3.303v-2.644h3.303v-5.29h3.09v5.29h4.05v2.644h-4.05v12.03c0 1.453.64 2.49 2.025 2.49.853 0 1.704-.363 2.078-.778l.905 2.23c-.798.726-1.918 1.244-3.73 1.244-2.93-.052-4.368-1.66-4.368-4.563z" fill-rule="nonzero"/></g><path d="M105.703 169.511v-14.784h1.888l8.971 11.898v-11.898h1.795v14.784h-1.888l-8.971-12.014v12.015h-1.795zm27.264-.586c-1.188.446-2.47.68-3.822.68-5.312 0-7.968-2.558-7.968-7.697 0-4.858 2.562-7.298 7.69-7.298 1.467 0 2.842.21 4.1.61v1.643a10.598 10.598 0 0 0-3.891-.728c-4.008 0-6.012 1.924-6.012 5.726 0 4.107 1.98 6.149 5.919 6.149.628 0 1.327-.095 2.096-.258V162.8h1.888v6.125zm3.03-5.116v-9.082h1.886v9.082c0 2.84 1.399 4.271 4.218 4.271 2.797 0 4.218-1.431 4.218-4.271v-9.082h1.887v9.082c0 3.872-2.028 5.82-6.105 5.82s-6.105-1.948-6.105-5.82zm17.475-9.082v13.236h7.69v1.548h-9.576v-14.784h1.887-.001zm10.417 14.784h-1.98l7.293-16.73 7.293 16.73h-2.097l-1.888-4.646h-4.846l.512-1.548h3.706l-2.75-6.69-5.243 12.884zm14.633 0v-14.784h6.268c2.797 0 4.195 1.174 4.195 3.544 0 1.924-1.375 3.355-4.101 4.27l5.033 6.97h-2.493l-4.66-6.64v-1.245c2.796-.445 4.217-1.525 4.217-3.261 0-1.361-.77-2.042-2.33-2.042h-4.195v13.188h-1.934z" fill="#B52E31" fill-rule="nonzero"/><path fill="#E23237" d="M70 151.37L85.18 146l15.578 5.276-2.518 19.915-13.06 7.168-12.85-7.075z"/><path fill="#B52E31" d="M100.758 151.276L85.38 146v32.359l12.893-7.168z"/><path d="M85.18 149.807l-9.413 20.89 3.512-.07 1.897-4.72h8.406l2.06 4.768 3.349.07-9.81-20.938zm.023 6.707l3.185 6.636h-5.971l2.787-6.636z" fill="#FFF" fill-rule="nonzero"/><path d="M63.77 250.36h8.707a.706.706 0 1 0 0-1.409h-7.915v-4.797h6.926a.706.706 0 0 0 .712-.705.718.718 0 0 0-.712-.704h-6.926v-4.68h7.816a.706.706 0 1 0 0-1.41H63.77a.786.786 0 0 0-.772.784v12.139c0 .43.356.783.772.783zm14.96-.782c0 .43.357.783.772.783h7.975a.706.706 0 0 0 .713-.705.722.722 0 0 0-.713-.724h-7.183V237.34a.79.79 0 0 0-.792-.783.786.786 0 0 0-.771.783v12.237zm15.496.783h8.707a.706.706 0 1 0 0-1.41h-7.916v-4.797h6.926a.706.706 0 0 0 .713-.705.718.718 0 0 0-.713-.704h-6.926v-4.68h7.817a.706.706 0 1 0 0-1.41h-8.608a.786.786 0 0 0-.772.784v12.139c0 .43.356.783.772.783zm21.293.235c2.276 0 3.78-.783 5.145-2.017a.728.728 0 0 0 .257-.548c0-.392-.356-.744-.752-.744a.722.722 0 0 0-.495.215c-1.187 1.077-2.394 1.665-4.116 1.665-3.047 0-5.363-2.487-5.363-5.659v-.039c0-3.152 2.296-5.62 5.363-5.62 1.702 0 2.91.627 3.978 1.567a.94.94 0 0 0 .514.176c.416 0 .792-.352.792-.763 0-.274-.158-.49-.317-.627-1.286-1.057-2.71-1.781-4.947-1.781-4.076 0-7.005 3.21-7.005 7.087v.04c0 3.935 2.948 7.048 6.946 7.048zm14.406-.92c0 .43.357.783.792.783a.79.79 0 0 0 .791-.783v-11.591h4.018c.395 0 .732-.313.732-.705a.74.74 0 0 0-.732-.724h-9.618a.74.74 0 0 0-.732.724c0 .392.336.705.732.705h4.017v11.59zm11.636 0c0 .43.357.783.772.783a.79.79 0 0 0 .792-.783v-4.64h3.977l3.899 5.012c.178.235.415.41.732.41.396 0 .792-.352.792-.763 0-.215-.1-.391-.258-.568l-3.443-4.385c2.157-.411 3.7-1.723 3.7-3.975v-.039c0-1.077-.395-2.036-1.068-2.702-.87-.861-2.236-1.37-3.938-1.37h-5.185a.786.786 0 0 0-.772.783v12.237zm1.564-6.03v-5.561h4.274c2.236 0 3.542 1.018 3.542 2.702v.039c0 1.762-1.484 2.82-3.562 2.82h-4.254zm21.65 6.95c4.214 0 7.084-3.31 7.084-7.088v-.039c0-3.779-2.83-7.048-7.045-7.048s-7.085 3.309-7.085 7.087v.04c0 3.778 2.83 7.048 7.045 7.048zm.039-1.43c-3.167 0-5.462-2.545-5.462-5.658v-.039c0-3.113 2.256-5.62 5.422-5.62s5.462 2.546 5.462 5.66v.038c0 3.113-2.256 5.62-5.422 5.62zm12.823.53c0 .41.337.763.752.763a.769.769 0 0 0 .772-.764v-10.612l8.588 10.867c.238.274.475.47.812.47h.079c.415 0 .712-.314.712-.725v-12.374a.765.765 0 0 0-.752-.763.769.769 0 0 0-.771.763v10.338l-8.41-10.612c-.219-.274-.436-.45-.792-.45h-.218a.782.782 0 0 0-.772.763v12.335z" fill="#000"/><path d="M42.694 228.871c-.621-.111-1.13-.005-1.327.33-.146.249-.095.581.108.93l1.219-1.26zm-.882 1.707c.257.278.597.548.998.776.957.544 1.95.674 2.42.358l-3.418-1.134zm3.858.957a.256.256 0 0 0-.257-.254.256.256 0 0 0-.258.254c0 .14.115.254.258.254a.256.256 0 0 0 .257-.254z"/><g stroke="#000" stroke-linecap="round" stroke-linejoin="round" stroke-width="1.234" transform="translate(16 225)"><path d="M11.142 7.429C6.796 6.642 3.23 7.39 1.855 9.76c-1.02 1.758-.662 4.108.758 6.572m2.356 3.159c1.798 1.965 4.18 3.874 6.989 5.486 6.695 3.844 13.644 4.763 16.945 2.525"/><ellipse cx="30.352" cy="26.431" rx="1.805" ry="1.795"/><path d="M27.68 18.928c2.845-3.343 3.967-6.778 2.594-9.143-1.004-1.73-3.174-2.596-5.962-2.632m-3.988.431c-2.632.56-5.515 1.664-8.352 3.293C5.079 14.835.752 20.575 1.339 24.555"/><ellipse cx="1.805" cy="26.431" rx="1.805" ry="1.795"/><path d="M9.4 27.425c1.488 4.131 3.922 6.823 6.672 6.823 1.992 0 3.819-1.414 5.24-3.764m1.716-3.904c.788-2.506 1.244-5.467 1.244-8.64 0-7.788-2.745-14.301-6.415-15.922"/><ellipse cx="16.078" cy="1.795" rx="1.805" ry="1.795"/><ellipse cx="16.078" cy="18.11" rx="1.641" ry="1.632"/></g><path d="M45.056 230.498c.407-.473.567-.959.37-1.294-.143-.244-.453-.367-.851-.372l.481 1.666zm-1.05-1.605c-.377.08-.789.236-1.194.466-.984.56-1.603 1.372-1.519 1.936l2.712-2.402zm-2.628 2.896a.256.256 0 0 0 .258-.254.256.256 0 0 0-.258-.254.256.256 0 0 0-.257.254c0 .14.115.254.257.254z"/><path d="M42.445 231.7c.212.585.56.966.953.966.284 0 .545-.2.748-.533l-1.701-.432zm1.947-.119a4.11 4.11 0 0 0 .177-1.223c0-1.102-.392-2.023-.916-2.253l.739 3.476zm-.994-3.277a.256.256 0 0 0 .258-.253.256.256 0 0 0-.258-.254.256.256 0 0 0-.258.254c0 .14.116.253.258.253zm.05 2.281a.236.236 0 0 1-.28-.178.232.232 0 0 1 .18-.276.236.236 0 0 1 .28.178.232.232 0 0 1-.18.276z"/><path fill="#41B883" d="M281.117 88h11.529l-28.823 49.548L235 88h22.05l6.773 11.49 6.63-11.49z"/><path fill="#41B883" d="M235 88l28.823 49.548L292.646 88h-11.53l-17.293 29.728L246.385 88z"/><path fill="#35495E" d="M246.385 88l17.438 29.873L281.117 88h-10.665l-6.629 11.49L257.05 88z"/><path d="M253.027 146.53l3.075-8.365h-1.816l-2.296 7.08-2.26-7.08h-1.851l3.012 8.365h2.136zm9.784-6.45h-1.704v3.286c0 1.455-.592 2.146-1.444 2.146-.79 0-1.185-.425-1.272-1.092a8.576 8.576 0 0 1-.049-.884v-3.456h-1.703v3.807c0 .521.011.849.06 1.176.15.886.964 1.637 2.322 1.637.63 0 1.1-.121 1.58-.437l.506-.824v1.091h1.704v-6.45zm7.522 3.092c0-1.758-1.062-3.26-3.075-3.26-2.012 0-3.334 1.44-3.334 3.418 0 2.267 1.396 3.37 3.199 3.37 1.543 0 2.777-.764 3.11-2.268h-1.702c-.111.692-.642 1.092-1.37 1.092-.79 0-1.408-.424-1.519-1.782h4.667c.025-.219.025-.412.025-.57h-.001zm-3.15-2.085c.816 0 1.286.545 1.397 1.564h-2.89c.15-1.067.705-1.564 1.495-1.564h-.001zm5.053 3.577c-.605 0-1.025.423-1.025 1.017 0 .594.42 1.02 1.025 1.02.617 0 1.037-.426 1.037-1.02 0-.594-.42-1.018-1.037-1.018zm3.1-6.984c-.617 0-.938.302-.938.885 0 .581.32.885.94.885.603 0 .925-.304.925-.886 0-.58-.322-.884-.927-.884zm.84 2.4h-1.692v6.62c0 .182-.013.388-.024.557-.062.497-.384.655-1.124.594v1.189c.185.024.395.037.63.037 1.506 0 2.098-.607 2.185-1.625.012-.219.025-.534.025-.776v-6.596zm3.899-.169c-1.57 0-2.605.752-2.605 1.988 0 1.116.84 1.636 2.06 1.94 1.137.278 1.57.557 1.57 1.055 0 .473-.42.703-.964.703-.593 0-1.086-.328-1.223-1.031h-1.703c.185 1.456 1.308 2.134 2.901 2.134 1.506 0 2.704-.63 2.704-1.928 0-1.188-.79-1.722-2.135-2.061-1.088-.266-1.494-.522-1.494-1.006 0-.4.27-.691.777-.691.568 0 .902.339 1.013.933h1.704c-.149-1.176-1.038-2.037-2.605-2.037v.001z" fill="#000" fill-rule="nonzero"/><path d="M334.121 262.328l4.459.024-8.967 12.104c-.22.294-.554.613-.723 1.008-.429.993-.868 3.17-.868 3.17l-4.08.02s.635-2.27.608-3.478c-.022-1.056-.564-2.11-.868-3.17-.306-1.072-.722-3.17-.722-3.17h4.194l.578 2.306 6.39-8.814" fill="#1A1918"/><path d="M326.014 264.602c.796.477 1.285 3.107 1.285 3.107s-4.163.06-6.43.06h-1.956l-2.378 10.29H312.9s2.263-11.181 2.798-13.208c.173-.656 1.185-.544 2.896-.544h2.73c1.764 0 3.825-.223 4.692.295zm-16.925 5.01s.113-.66-.384-1.425c-.425-.652-.818-.803-1.937-.838-3.159-.099-3.098 2.229-3.098 2.229l5.42.034zm3.427-2.665c.462 1.66-.42 5.562-.42 5.562s-4.609-.078-7.132 0c-.785.024-1.724-.085-1.957.278-.33.509.12 1.292.5 1.622.438.381 1.29.425 1.597.463 2.048.26 6.335.067 6.335.067l-.742 3.27s-6.059.302-9.089-.418c-.599-.141-1.16-.428-1.538-.833-.104-.112-.193-.263-.291-.394a3.666 3.666 0 0 1-.408-.719c-.693-1.833.08-5.347.839-7.23.088-.218.198-.495.315-.73.145-.292.268-.624.384-.8.078-.12.175-.198.256-.312.093-.135.203-.265.303-.382.28-.322.597-.55.98-.834 1.262-.94 3.547-1.67 6.292-1.39 1.032.105 2.594.472 3.355 1.529.204.282.306.842.42 1.252v-.001zm-16.676-2.653l3.526-.02s-1.965 9.266-2.966 13.785h-4.057c-2.834 0-5.358.348-6.432-1.67-1.041-1.958-.048-5.179.42-7.367.33-1.55 1.024-4.715 1.024-4.715l3.654-.033s-1.033 4.928-1.463 7.39c-.153.88-.47 1.71-.138 2.362.314.62.755.665 2.096.696.425.01 1.818 0 1.818 0l2.517-10.428zm-16.5 6.674c.369-1.304.907-2.718.839-3.892-.074-1.257-1.134-2.402-1.818-2.643-2.06-.722-3.988.288-4.754 1.112-.991 1.068-1.328 2.316-1.679 4.033-.26 1.275-.475 2.62 0 3.615.842 1.757 3.467 1.374 6.293 1.39.42-1.117.766-2.373 1.12-3.615h-.002zm4.894-5.144c.402 2.91-1.142 6.124-2.207 8.919 1.086.097 2.037-.015 2.105.065.071.105-.727 3.336-1.006 3.344-.861.023-3.715.046-4.905.046-3.883 0-7.515.252-9.368-1.669-.753-.78-1.273-2.117-1.4-3.059-.21-1.57.054-3.3.42-4.726.332-1.289.757-2.503 1.398-3.615 1.633-2.833 4.472-4.934 9.23-4.45.923.094 2.249.496 3.077.973.058.033.257.192.304.22 1.118.707 2.137 2.397 2.353 3.95l-.001.002zm-17.181-1.513c-.235 1.063-.47 2.269-.718 3.32h-3.915c.303-1.165.535-2.323.839-3.337 1.253 0 2.418.017 3.794.017zm-4.773 4.293h3.775c-.493 2.717-1.47 7.1-2.236 10.15-.48 1.909-.8 3.302-2.098 4.31-.116.09-.184.047-.28.139-.239.227-1.345.49-1.957.556-.996.107-2.122.015-3.345-.011.32-1.164.682-2.56.967-3.604 2.983.36 3.058-2.444 3.636-5.143.334-1.56 1.346-5.771 1.538-6.397z" fill="#1A1918" fill-rule="nonzero"/><g fill="#21609B"><path d="M253.076 275.654l-.08.208c-1.372 2.675-3.803 4.316-7.27 4.389a10.149 10.149 0 0 1-4.174-.836c-2.179-.98-4.01-2.796-5.01-4.737-1.434-2.781-1.693-6.65 1.29-9.54.046 0-.362.626-.316.626l-.082.268c-2.149 6.737 4.473 12.511 10.912 11.85 1.547-.158 3.52-1.007 4.73-2.228"/><path d="M249.18 272.868c1.62.011 3.312-.748 4.314-1.811-.877 2.228-3.414 3.66-6.818 3.205-2.85-.383-5.564-3.254-5.844-6.13-.205-2.094.524-3.343 1.725-4.86-.417.794-.572 1.405-.612 1.795-.456 4.528 3.613 7.777 7.236 7.8"/><path d="M253.331 267.243c-.251.578-1.702 1.67-2.342 1.806-2.535.542-4.158-.662-5.009-2.032a6.196 6.196 0 0 1-.402-.905c-.33-1.123-.178-2.821.806-3.7-.296.836-.34 1.807-.183 2.437a5.41 5.41 0 0 0 .67 1.467c.524.764.857.95 1.53 1.354.304.183.63.33.77.37.639.188 1.987.684 4.16-.798"/></g><g><g transform="translate(267.795 200.935)"><mask id="b" fill="#fff"><use xlink:href="#a"/></mask><path d="M28.62 23.632c0 2.599-2.147 4.723-4.771 4.723H4.769C2.146 28.355 0 26.231 0 23.632V4.741C0 2.143 2.146.018 4.77.018h19.079c2.624 0 4.77 2.125 4.77 4.723v18.891" fill="#4D3F71" mask="url(#b)"/></g><path d="M278.542 220.944h5.192c.893 0 1.588-.224 2.077-.677.493-.449.742-1.089.742-1.912 0-.81-.245-1.426-.742-1.865-.498-.44-1.184-.65-2.077-.65h-5.192v5.104zm0-7.158h4.793c.704 0 1.292-.191 1.761-.584.47-.393.706-.952.706-1.684 0-.822-.212-1.403-.635-1.737-.423-.334-1.034-.503-1.832-.503h-4.793v4.508zm-2.937-6.836h8.152c1.504 0 2.712.334 3.619 1.005.907.673 1.362 1.685 1.362 3.042 0 .823-.207 1.528-.62 2.113-.414.585-1.006 1.042-1.777 1.363v.045c1.035.215 1.82.691 2.35 1.427.53.741.799 1.665.799 2.78 0 .64-.117 1.24-.352 1.794-.24.564-.62 1.06-1.104 1.44-.504.403-1.142.722-1.927.96-.785.238-1.715.357-2.796.357h-7.706V206.95z" fill="#FFFFFE" fill-rule="nonzero"/><path d="M304.332 220.795h3.434c.59 0 1.003-.023 1.24-.067.422-.074.773-.199 1.055-.374.282-.176.514-.43.696-.765a2.38 2.38 0 0 0 .273-1.157c0-.513-.132-.96-.395-1.337a2.085 2.085 0 0 0-1.096-.797c-.468-.154-1.14-.23-2.018-.23h-3.19v4.726zm0-6.35h2.982c.81 0 1.388-.053 1.74-.159.465-.137.815-.366 1.049-.684.236-.32.353-.72.353-1.2 0-.457-.11-.86-.33-1.206a1.667 1.667 0 0 0-.94-.713c-.408-.128-1.107-.192-2.098-.192h-2.756v4.154zm-1.825 7.972v-13.748h5.174c1.053 0 1.899.139 2.535.417.62.265 1.143.714 1.496 1.285.36.578.54 1.183.54 1.815 0 .587-.16 1.14-.479 1.66-.32.519-.803.937-1.449 1.256.834.244 1.475.66 1.924 1.248.449.587.673 1.28.673 2.082a4 4 0 0 1-.41 1.795c-.273.553-.61.98-1.011 1.28-.4.3-.904.527-1.51.68-.605.153-1.347.23-2.224.23h-5.26zm13.056-6.015c0 1.263.285 2.21.854 2.838.57.628 1.286.943 2.15.943.856 0 1.57-.316 2.139-.948.569-.632.854-1.594.854-2.889 0-1.22-.287-2.144-.86-2.773a2.772 2.772 0 0 0-2.134-.942c-.863 0-1.58.312-2.149.938-.57.626-.854 1.57-.854 2.833zm-1.775 0c0-1.827.525-3.18 1.574-4.06.876-.73 1.944-1.096 3.205-1.096 1.4 0 2.545.445 3.433 1.333.89.89 1.334 2.117 1.334 3.684 0 1.269-.197 2.268-.59 2.995a4.11 4.11 0 0 1-1.717 1.695 5.131 5.131 0 0 1-2.46.605c-1.427 0-2.58-.443-3.46-1.329-.879-.885-1.319-2.16-1.319-3.827zm12.189 0c0 1.263.284 2.21.854 2.838.569.628 1.286.943 2.15.943.856 0 1.569-.316 2.138-.948.57-.632.854-1.594.854-2.889 0-1.22-.286-2.144-.859-2.773a2.772 2.772 0 0 0-2.135-.942c-.862 0-1.58.312-2.148.938-.57.626-.854 1.57-.854 2.833zm-1.775 0c0-1.827.524-3.18 1.573-4.06.877-.73 1.944-1.096 3.205-1.096 1.4 0 2.545.445 3.434 1.333.89.89 1.334 2.117 1.334 3.684 0 1.269-.197 2.268-.59 2.995a4.11 4.11 0 0 1-1.718 1.695 5.13 5.13 0 0 1-2.46.605c-1.427 0-2.58-.443-3.459-1.329-.879-.885-1.319-2.16-1.319-3.827zm15.404 3.597l.217 1.416a5.315 5.315 0 0 1-1.14.143c-.547 0-.972-.092-1.273-.276a1.512 1.512 0 0 1-.636-.726c-.123-.301-.185-.93-.185-1.893v-5.443h-1.106v-1.247h1.106v-2.342l1.5-.962v3.304h1.516v1.247h-1.516v5.532c0 .457.026.751.08.882a.655.655 0 0 0 .259.312c.12.077.292.116.515.116.167 0 .388-.022.662-.063zm.217-1.61l1.75-.259c.099.662.373 1.17.823 1.523.45.353 1.076.53 1.884.53.813 0 1.417-.157 1.81-.47.394-.312.59-.678.59-1.1 0-.378-.174-.675-.52-.892-.244-.149-.847-.338-1.812-.567-1.298-.31-2.199-.577-2.7-.804-.502-.225-.883-.538-1.142-.938a2.38 2.38 0 0 1-.388-1.323c0-.44.106-.846.32-1.222a2.74 2.74 0 0 1 .87-.933c.275-.192.651-.355 1.127-.488a5.656 5.656 0 0 1 1.53-.2c.82 0 1.54.112 2.16.336.62.222 1.076.524 1.372.904.295.381.498.89.61 1.529l-1.732.223c-.078-.508-.306-.904-.684-1.19-.377-.284-.91-.427-1.598-.427-.814 0-1.395.127-1.742.38-.348.255-.521.553-.521.893 0 .216.072.412.217.585.144.18.37.328.678.447.177.06.699.203 1.564.426 1.253.316 2.127.575 2.623.776.494.201.883.494 1.166.878.281.384.423.86.423 1.43 0 .558-.172 1.083-.517 1.575-.344.492-.842.873-1.49 1.143-.65.269-1.385.404-2.205.404-1.357 0-2.392-.267-3.104-.8-.712-.532-1.166-1.322-1.362-2.369zm14.534 1.61l.218 1.416a5.315 5.315 0 0 1-1.14.143c-.546 0-.971-.092-1.272-.276a1.512 1.512 0 0 1-.636-.726c-.124-.301-.185-.93-.185-1.893v-5.443h-1.106v-1.247h1.106v-2.342l1.5-.962v3.304h1.515v1.247h-1.516v5.532c0 .457.026.751.08.882a.655.655 0 0 0 .26.312c.12.077.291.116.514.116.168 0 .389-.022.662-.063zm1.086 1.559v-10.084h1.462v1.53c.373-.716.717-1.188 1.033-1.416a1.74 1.74 0 0 1 1.042-.342c.548 0 1.104.184 1.67.55l-.56 1.587c-.397-.247-.794-.37-1.19-.37a1.5 1.5 0 0 0-.958.336c-.283.225-.484.537-.604.936a6.983 6.983 0 0 0-.27 1.993v5.28h-1.625zm13.288-5.175c-.638.248-1.594.459-2.87.632-.722.1-1.233.21-1.533.335-.28.109-.52.298-.692.543a1.38 1.38 0 0 0-.244.794c0 .447.177.818.532 1.115.354.297.873.446 1.557.446.677 0 1.278-.14 1.805-.423.528-.282.915-.667 1.162-1.156.188-.378.283-.935.283-1.672v-.614zm.146 3.734c-.65.527-1.277.898-1.88 1.116-.62.22-1.276.33-1.936.325-1.139 0-2.014-.265-2.626-.794-.612-.53-.917-1.207-.917-2.03 0-.484.115-.925.347-1.324a2.78 2.78 0 0 1 .907-.962 4.412 4.412 0 0 1 1.264-.548c.345-.086.865-.17 1.562-.25 1.418-.161 2.463-.353 3.133-.576.006-.229.01-.375.01-.437 0-.681-.166-1.16-.499-1.44-.448-.378-1.116-.567-2-.567-.827 0-1.437.138-1.83.414-.394.275-.686.763-.874 1.463l-1.718-.223c.156-.7.414-1.265.772-1.695.357-.43.875-.762 1.552-.995.676-.232 1.46-.348 2.351-.348.886 0 1.605.1 2.158.298.552.197.96.447 1.22.747.26.301.442.68.547 1.139.058.284.086.799.086 1.541v2.23c0 1.554.039 2.537.113 2.95a3.6 3.6 0 0 0 .444 1.184h-1.834a3.416 3.416 0 0 1-.352-1.218zm4.589-3.705c0 1.26.26 2.189.78 2.79.521.602 1.152.903 1.892.903.754 0 1.398-.312 1.935-.934.536-.623.804-1.59.804-2.896 0-1.247-.262-2.18-.785-2.8-.524-.62-1.15-.93-1.878-.93-.722 0-1.36.33-1.915.99-.556.66-.833 1.62-.833 2.878zm-1.535 8.583v-13.528h1.544v1.272c.364-.498.775-.871 1.232-1.12.459-.249 1.014-.373 1.667-.373.853 0 1.606.215 2.258.645.653.43 1.146 1.036 1.478 1.819.333.782.5 1.64.5 2.573 0 1.001-.184 1.902-.55 2.703-.368.801-.902 1.415-1.601 1.842-.7.426-1.435.64-2.208.64a3.24 3.24 0 0 1-1.52-.35 3.443 3.443 0 0 1-1.106-.885v4.762h-1.694z" fill="#4D3F71" fill-rule="nonzero"/></g><g><path fill="#FFF" d="M325.377 149l14.378 8.089v16.18l-14.378 8.09-14.377-8.09v-16.18z"/><path d="M337.378 172.658l-11.368 6.333v-4.932l7.083-3.838 4.285 2.437zm.78-.694v-13.243l-4.16 2.367v8.513l4.16 2.363zm-24.516.694l11.37 6.333v-4.932l-7.088-3.838-4.282 2.437zm-.778-.694v-13.243l4.158 2.367v8.513l-4.158 2.363zm.488-14.101l11.66-6.495v4.766l-7.472 4.048-.06.033-4.128-2.352zm24.317 0l-11.66-6.495v4.766l7.472 4.044.06.033 4.128-2.348z" fill="#8ED6FB" fill-rule="nonzero"/><path d="M324.88 172.94l-6.958-3.81v-7.544l6.958 3.999v7.355zm.994 0l6.958-3.807v-7.547l-6.958 3.999v7.355zm-7.48-12.226l6.983-3.822 6.984 3.822-6.984 4.014-6.984-4.014z" fill="#1C78C0" fill-rule="nonzero"/><path d="M354.32 170.316h3.073l3.132-10.28h-2.994l-1.855 7.294-1.977-7.294h-2.592l-1.996 7.294-1.836-7.294h-2.994l3.113 10.28h3.072l1.937-6.585 1.918 6.585zm6.365-5.11c0 3.085 2.134 5.367 5.489 5.367 2.596 0 3.992-1.534 4.39-2.26l-1.817-1.357c-.298.432-1.117 1.258-2.536 1.258-1.538 0-2.655-.983-2.715-2.36h7.348c.018-.197.018-.392.018-.59 0-3.36-1.835-5.485-5.068-5.485-2.975 0-5.11 2.319-5.11 5.427zm2.893-1.123c.12-1.178.957-2.084 2.257-2.084 1.259 0 2.175.825 2.234 2.084h-4.49zm8.323 6.233h2.596v-1.06c.28.334 1.318 1.317 3.095 1.317 2.994 0 5.109-2.22 5.109-5.386 0-3.184-1.955-5.404-4.95-5.404-1.794 0-2.833.983-3.094 1.335v-5.015h-2.752v14.213h-.004zm2.674-5.11c0-1.927 1.158-3.027 2.674-3.027 1.598 0 2.674 1.24 2.674 3.027 0 1.827-1.117 2.968-2.674 2.968-1.676 0-2.674-1.34-2.674-2.968zm9.198 8.786h2.752v-4.74c.261.334 1.296 1.317 3.095 1.317 2.994 0 4.95-2.22 4.95-5.404 0-3.144-2.116-5.386-5.11-5.386-1.776 0-2.815.984-3.095 1.336v-1.083h-2.595v13.96h.003zm2.674-8.845c0-1.633.998-2.968 2.674-2.968 1.557 0 2.674 1.14 2.674 2.968 0 1.79-1.076 3.027-2.674 3.027-1.516 0-2.674-1.101-2.674-3.027zm8.621 1.985c0 2.16 1.795 3.441 3.91 3.441 1.2 0 1.996-.352 2.536-.924l.18.667h2.435v-6.508c0-2.3-.998-4.029-4.35-4.029-1.597 0-3.173.591-4.111 1.218l1.039 1.85c.778-.393 1.735-.727 2.774-.727 1.218 0 1.896.61 1.896 1.515v.668c-.38-.257-1.2-.569-2.257-.569-2.436-.003-4.052 1.372-4.052 3.398zm2.752-.081c0-.844.738-1.435 1.795-1.435 1.058 0 1.818.532 1.818 1.435 0 .866-.76 1.416-1.795 1.416-1.036 0-1.818-.569-1.818-1.416zm12.993 1.123c-1.735 0-2.972-1.24-2.972-2.987 0-1.65 1.1-3.008 2.875-3.008 1.177 0 1.978.568 2.436.983l.778-2.282a5.36 5.36 0 0 0-3.292-1.1c-3.173 0-5.549 2.3-5.549 5.426 0 3.125 2.317 5.367 5.568 5.367a5.299 5.299 0 0 0 3.25-1.1l-.736-2.22c-.462.37-1.3.92-2.358.92zm4.13 2.142h2.752v-5.309l3.493 5.31h3.233l-3.952-5.625 3.672-4.66h-3.094l-3.352 4.326v-8.255h-2.752v14.213z" fill="#1A1C1C" fill-rule="nonzero"/></g><g><path d="M156 185h78.818v26.104h-39.41v4.351h-17.514v-4.35H156V185zm4.379 21.754h8.757V193.7h4.38v13.053h4.378V189.35h-17.515v17.403zm21.894-17.403v21.753h8.757v-4.35h8.758V189.35h-17.515zm8.757 4.35h4.379v8.702h-4.379v-8.702zm13.136-4.35v17.403h8.758V193.7h4.379v13.053h4.378V193.7h4.38v13.053h4.378V189.35h-26.273z" fill="#CB3837" fill-rule="nonzero"/><path fill="#FFF" d="M160.232 206.529h8.728v-12.996h4.364v12.996h4.364V189.2h-17.456z"/><path d="M182.449 189.2v21.53h8.728v-4.306h8.728V189.2H182.45zm13.092 12.918h-4.364v-8.612h4.364v8.612z" fill="#FFF" fill-rule="nonzero"/><path fill="#FFF" d="M204.137 189.2v17.329h8.816v-12.996h4.408v12.996h4.409v-12.996h4.408v12.996h4.408V189.2z"/></g></g></svg>